<?xml version="1.0" encoding="utf-8"?>
<!-- Svg Vector Icons : http://www.onlinewebfonts.com/icon -->
<!DOCTYPE svg PUBLIC "-//W3C//DTD SVG 1.1//EN" "http://www.w3.org/Graphics/SVG/1.1/DTD/svg11.dtd">
<svg version="1.1" xmlns="http://www.w3.org/2000/svg" xmlns:xlink="http://www.w3.org/1999/xlink" x="0px" y="0px" viewBox="0 0 256 256" enable-background="new 0 0 256 256" xml:space="preserve">
<metadata> Svg Vector Icons : http://www.onlinewebfonts.com/icon </metadata>
<g><g><g><path fill="#000000" d="M118.9,10.6c-20.3,3.8-35.7,18.3-41.2,38.6c-1.7,6.1-1.7,18.3,0,24.9c2.3,9.2,7.1,17.6,14,24.4c6.4,6.4,13.3,10.4,22.3,13.1c4.4,1.4,5.5,1.5,13.8,1.5c9.8,0.1,12.8-0.5,20.2-3.4c12-4.9,23.3-16.2,28.2-28.2c2.9-7.3,3.5-10.3,3.4-20.2c0-8.3-0.1-9.5-1.5-13.8c-2.7-9-6.8-15.9-13.1-22.3c-6.7-6.8-15.2-11.7-24.1-13.8C134.8,9.9,124.4,9.5,118.9,10.6z"/><path fill="#000000" d="M118.1,130.1c-13.3,1.4-27.4,6.2-38.6,13.2c-25.3,15.7-42.9,43.9-42.9,68.7c0.1,17.1,8,28.2,23.8,32.8c2.9,0.9,7.9,1,64.1,1.1c43.5,0.1,62.4,0,65.9-0.4c9-1.1,15.4-4.1,20.6-9.6c5.9-6.3,8.4-13.4,8.4-23.8c0-19.1-9.7-39.6-26.5-56.1C173.4,136.9,145.6,127.2,118.1,130.1z"/></g></g></g>
</svg>