<svg xmlns="http://www.w3.org/2000/svg" width="723.22101pt" height="225pt" viewBox="0 0 723.22098 225"><path fill="#231f20" d="M137.949 139.62h-34.584v24.75h34.584zm4.14 32.635a3.923 3.923 0 0 1-3.456-1.967h-35.268v22.888a4.281 4.281 0 0 1-1.222 2.932 4.045 4.045 0 0 1-2.966 1.296h-.09c-1.135 0-2.206-.466-3.018-1.273a4.27 4.27 0 0 1-1.272-3.025v-57.159c0-1.204.325-2.322 1.135-3.112.814-.789 1.948-1.101 3.155-1.101h.15c1.476 0 2.8.737 3.53 1.986h35.866a3.953 3.953 0 0 1 3.455-1.986H142.237c1.207 0 2.342.322 3.144 1.101.798.79 1.142 1.922 1.142 3.119v32.177c-.01 1.176-.346 2.266-1.142 3.028-.814.778-1.937 1.096-3.152 1.096h-.118zm-124.322 24.62c-2.205 10.555-6.889 19.71-14.057 27.472-.428.424-.986.667-1.57.652h-.022c-.642 0-1.185-.16-1.58-.555-.376-.37-.538-.928-.538-1.572 0-.412.076-.815.273-1.193 5.519-8.655 8.998-19.965 10.39-33.928.5-4.534.88-19.533 1.033-33.522h-.01v-.381c0-1.675-.028-8.144-.087-10.757-.113-3.375-.167-5.543-.167-6.486v-.315c-.007-1.324.467-2.548 1.404-3.425.932-.909 2.12-1.408 3.406-1.417h.06c1.21 0 2.334.395 3.213 1.133 1.192.92 1.893 2.233 1.893 3.7v.11l-.01.156c-.051 1.106-.461 2.146-1.161 3.064.018 2.515.028 4.593.028 6.235v.716c0 .657.007 1.058.017 1.299l-.01.133c-.007.16-.007 1.04-.007 1.855-.021 2.172-.028 3.738-.045 4.018l-.019.326c-.266 17.113-1.17 36.385-2.435 42.682m60.06-10.624h.038c1.213 0 2.343.5 3.194 1.384.83.864 1.315 2.004 1.315 3.197V190.932c-.032 1.222-.5 2.354-1.391 3.185-.877.854-2.01 1.321-3.19 1.321H47.159c-.73 1.226-2.028 1.967-3.533 1.967h-.134c-1.231 0-2.345-.305-3.158-1.098-.817-.782-1.152-1.906-1.137-3.111v-57.09c-.015-.048 0-.064 0-.064a4.09 4.09 0 0 1 1.272-3.015c.804-.816 1.868-1.293 3.023-1.293H43.564c1.132 0 2.196.477 2.977 1.298.778.828 1.218 1.875 1.218 3.01v53.23h25.704c.52-1.841 2.159-3.033 4.203-3.021h.14zm101.934 6.842v-53.206h-18.712c-.834 0-1.646-.212-2.271-.794-.62-.597-.843-1.406-.843-2.221v-.028c0-.83.202-1.672.832-2.296.6-.6 1.432-.828 2.27-.828l39.898.011c.526-1.865 2.161-3.038 4.201-3.026H205.368c1.202 0 2.306.504 3.153 1.386.834.863 1.313 1.994 1.313 3.186v.082c0 1.234-.51 2.378-1.395 3.22-.87.841-2 1.311-3.204 1.311h-16.82v53.252a4.199 4.199 0 0 1-1.284 2.993 4.21 4.21 0 0 1-3 1.273h-.1c-1.164 0-2.262-.45-3.05-1.297a4.302 4.302 0 0 1-1.221-2.997zm73.533-50.883c0-.977-.2-1.784-.577-2.437-.232-.378-.484-.636-.738-.807a1.628 1.628 0 0 0-.905-.256c-.535 0-.975.13-1.328.383-.374.258-.653.644-.888 1.162v4.519c.137.37.356.631.711.807.34.187.802.299 1.415.299h.008c.344 0 .652-.076.927-.24.274-.151.51-.388.732-.712.434-.662.643-1.56.643-2.718m1.96 0c0 1.51-.349 2.754-1.053 3.701-.36.475-.776.83-1.259 1.075a3.608 3.608 0 0 1-1.624.357c-.585 0-1.134-.08-1.61-.245a3.396 3.396 0 0 1-.85-.432v2.264c0 .074.024.135.045.181.013.047.04.094.109.116.08.078.318.128.616.128h.01c.113 0 .239.027.337.09a.537.537 0 0 1 .23.28c.01.08.016.157.016.241 0 .116-.005.246-.054.346a.57.57 0 0 1-.29.22c-.083.036-.164.036-.24.036h-3.285a.559.559 0 0 1-.313-.074c-.099-.054-.162-.163-.211-.263a1.17 1.17 0 0 1-.022-.207v-.096a.625.625 0 0 1 .103-.322.53.53 0 0 1 .277-.218.813.813 0 0 1 .224-.033h.01c.172 0 .31-.024.395-.079a.355.355 0 0 0 .175-.186c.017-.07.034-.139.034-.24v-9.034c0-.366-.017-.623-.05-.755-.015-.033-.015-.048-.018-.06 0-.01-.007-.01-.007-.01-.018-.011-.07-.018-.111-.024-.109-.015-.28-.04-.483-.04h-.004a.719.719 0 0 1-.363-.08.558.558 0 0 1-.244-.275c-.034-.083-.034-.17-.034-.245v-.013c0-.134.034-.266.116-.373a.735.735 0 0 1 .327-.226h.016l1.898-.548c.085-.018.164-.05.249-.05.079 0 .15.032.236.05a.562.562 0 0 1 .18.15c.096.124.126.28.126.427v.45c.264-.236.555-.428.866-.582.475-.22.99-.312 1.537-.312.594 0 1.15.093 1.627.33.508.223.921.565 1.28 1.015.728.9 1.085 2.1 1.085 3.56m45.56 20.6a.564.564 0 0 0 .258.266c.108.06.23.076.362.076.194 0 .346.021.44.05.03.01.063.034.094.049.012.01.012.012.033.021l.01.062c.013.13.036.373.036.717v5.694c0 .085-.01.154-.036.195-.03.09-.084.134-.156.183-.107.047-.226.066-.42.066a.65.65 0 0 0-.24.045.453.453 0 0 0-.274.195.635.635 0 0 0-.114.338V170.783c0 .083.01.162.04.238a.518.518 0 0 0 .226.297c.096.075.215.092.348.092h3.152c.088 0 .169-.01.244-.038a.603.603 0 0 0 .275-.218.606.606 0 0 0 .091-.352.588.588 0 0 0-.048-.241.466.466 0 0 0-.215-.273.602.602 0 0 0-.347-.1c-.18 0-.321 0-.437-.02h-.126c-.005-.01-.028-.01-.028-.013h-.025c-.045-.032-.083-.048-.1-.1-.039-.05-.052-.136-.052-.245v-5.488c.22-.294.564-.588.975-.864.5-.341.934-.493 1.267-.493.28 0 .496.05.681.123.169.084.307.185.425.345.1.151.2.366.257.666.054.285.103.641.103 1.06v4.33c0 .202-.028.355-.049.445-.01.067-.034.112-.034.125 0 .022-.018.022-.018.022l-.002.021s-.018 0-.053.017a1 1 0 0 1-.277.045c-.121.012-.284.019-.478.019a.7.7 0 0 0-.227.038c-.114.03-.207.128-.274.22a.636.636 0 0 0-.098.356c0 .081.002.164.039.24a.605.605 0 0 0 .223.276c.11.075.224.092.337.092h3.58a.69.69 0 0 0 .226-.038.503.503 0 0 0 .262-.185.647.647 0 0 0 .08-.33c0-.031 0-.057-.013-.092-.005-.078-.005-.16-.052-.227a.497.497 0 0 0-.219-.263.659.659 0 0 0-.333-.087c-.193 0-.342-.01-.476-.02a1.228 1.228 0 0 1-.237-.061v-.012h-.008c-.035-.022-.064-.044-.106-.123a.846.846 0 0 1-.05-.311v-5.25c0-.558-.098-1.05-.303-1.469a2.413 2.413 0 0 0-.974-.992 2.76 2.76 0 0 0-1.44-.395h-.01c-.528 0-1.063.133-1.58.361-.394.162-.768.414-1.145.714v-.612c0-.076-.023-.151-.027-.238a.582.582 0 0 0-.22-.289.604.604 0 0 0-.346-.097c-.07 0-.125.019-.18.027h-.027l-1.753.536a.965.965 0 0 0-.35.222.598.598 0 0 0-.124.378v.01c0 .085 0 .159.038.244m-5.602-24.992s0-.012.01-.02c-.01.01-.01.018-.01.02m2.51 6.6c0-.473-.102-.899-.301-1.273a2.669 2.669 0 0 0-.895-.952c-.467-.308-1.215-.585-2.242-.876a11.49 11.49 0 0 1-1.124-.33c-.31-.118-.531-.205-.662-.297h-.002a1.09 1.09 0 0 1-.377-.358.74.74 0 0 1-.124-.416v-.125c.045-.232.086-.439.164-.592.088-.227.233-.384.434-.51.19-.106.447-.168.768-.168.308 0 .59.061.888.197.787.362 1.444.938 1.945 1.752a.64.64 0 0 0 .208.225c.068.066.19.087.274.087h.015c.115 0 .22-.02.303-.077l.014-.01a.705.705 0 0 0 .231-.204.469.469 0 0 0 .105-.307.589.589 0 0 0-.054-.246l-.917-2.184a.682.682 0 0 0-.228-.282c-.086-.083-.228-.112-.33-.112h-.023a.677.677 0 0 0-.402.119.474.474 0 0 0-.129.173.27.27 0 0 0-.049.164.652.652 0 0 0-.176-.081 3.996 3.996 0 0 0-1.815-.46h-.008c-.64 0-1.264.24-1.779.676-.319.266-.558.593-.718.951a2.844 2.844 0 0 0-.242 1.19v.01c0 .44.093.86.283 1.214.186.373.47.688.84.944h.005c.223.148.517.279.883.428.366.137.8.275 1.317.42.032.011.072.017.111.03.393.115.727.229.994.329.286.111.502.218.657.315.185.133.335.261.416.432.08.166.127.358.127.595a1.1 1.1 0 0 1-.107.5 1.121 1.121 0 0 1-.289.394c-.277.251-.596.37-.97.39h-.159c-.607 0-1.182-.2-1.762-.62h-.013v-.011a4.88 4.88 0 0 1-1.406-1.548.636.636 0 0 0-.204-.228.473.473 0 0 0-.291-.092h-.004c-.09 0-.173.028-.27.06v.016h-.021a.952.952 0 0 0-.254.195.664.664 0 0 0-.11.315c0 .087.027.164.07.256l.863 2.362a.938.938 0 0 0 .22.31c.12.073.248.118.378.118a.476.476 0 0 0 .205-.045.597.597 0 0 0 .254-.181c.052-.091.088-.185.118-.294v-.06c.036.014.07.03.097.043.14.067.31.149.525.23.627.257 1.23.397 1.827.397.82-.011 1.522-.3 2.084-.845a2.72 2.72 0 0 0 .623-.937c.132-.35.21-.725.21-1.128m-32.586 12.945a1.362 1.362 0 0 0-.955-.382h-.014c-.456 0-.91.09-1.312.287a3.302 3.302 0 0 0-1.07.846 4.22 4.22 0 0 0-.843 1.656c-.197.64-.292 1.389-.292 2.217v.126h-1.413c-.079 0-.157.01-.24.029a.622.622 0 0 0-.365.579c0 .083.008.164.035.232a.474.474 0 0 0 .216.273c.034.01.06.033.096.05.07.038.17.045.258.045h1.428v.13l-.016 6.055-.002.278c-.026.074-.049.116-.056.15-.004.026-.024.04-.074.08-.07.044-.194.098-.384.129-.181.028-.42.047-.725.047a.636.636 0 0 0-.225.05.497.497 0 0 0-.28.208.737.737 0 0 0-.088.359c0 .083.007.162.035.238a.582.582 0 0 0 .219.287c.104.064.221.08.339.08h4.463c.087 0 .163-.01.244-.038a.54.54 0 0 0 .294-.213c.081-.109.09-.226.09-.354a.934.934 0 0 0-.03-.244.52.52 0 0 0-.248-.273.598.598 0 0 0-.35-.1c-.293 0-.553-.01-.743-.019-.095 0-.178-.013-.245-.028-.06-.01-.108-.02-.108-.032h-.01a.483.483 0 0 1-.295-.21.992.992 0 0 1-.11-.473v-6.107h1.736c.084 0 .165-.011.229-.034a.46.46 0 0 0 .29-.225.587.587 0 0 0 .086-.341.48.48 0 0 0-.045-.236.48.48 0 0 0-.208-.29.742.742 0 0 0-.352-.082h-1.736v-1.342c0-.73.11-1.295.29-1.67v-.011c.055-.15.124-.267.183-.312.021-.028.05-.058.05-.058.036-.01.045-.021.045-.021h.002c.154 0 .362.08.617.241.163.097.287.176.42.218a.821.821 0 0 0 .385.088h.007c.293 0 .571-.088.785-.259a.981.981 0 0 0 .275-.356c.05-.144.085-.292.085-.446 0-.147-.043-.292-.108-.429a1.263 1.263 0 0 0-.261-.394m6.657 12.926c-.105-.073-.213-.087-.35-.087-.32 0-.516-.07-.618-.136a.281.281 0 0 1-.107-.128c-.028-.038-.033-.107-.033-.192v-7.726a.819.819 0 0 0-.04-.238c-.021-.106-.111-.21-.194-.285a.566.566 0 0 0-.35-.102c-.058 0-.128.02-.196.027l-1.748.536c-.136.047-.275.116-.356.214a.594.594 0 0 0-.135.386v.012c0 .08.014.154.043.24.05.106.13.211.237.266a.78.78 0 0 0 .362.073h.005c.203 0 .36.021.455.036.062.013.092.017.109.026 0 .015 0 .04.017.062.031.121.038.38.038.744v5.645a.58.58 0 0 1-.038.254.303.303 0 0 1-.154.195c-.106.06-.235.09-.432.09-.074 0-.138.011-.214.027a.54.54 0 0 0-.292.192.68.68 0 0 0-.093.331v.05c0 .075 0 .146.033.22a.47.47 0 0 0 .19.267c.09.074.2.107.302.114l.016.01h3.194c.084 0 .163-.01.244-.038a.45.45 0 0 0 .267-.218.569.569 0 0 0 .09-.351.85.85 0 0 0-.023-.235.461.461 0 0 0-.228-.28m-2.869-11.076c.107.103.246.193.389.245.143.062.289.095.446.095h.01c.165 0 .32-.033.457-.095.14-.052.266-.142.397-.245.109-.123.2-.242.266-.399a1.19 1.19 0 0 0 .09-.45v-.011c0-.162-.021-.318-.09-.455a1.255 1.255 0 0 0-.266-.398 1.213 1.213 0 0 0-.397-.258 1.105 1.105 0 0 0-.457-.084h-.01.01a1.11 1.11 0 0 0-.456.084.969.969 0 0 0-.389.258 1.026 1.026 0 0 0-.266.398.978.978 0 0 0-.088.455v.01c0 .16.017.315.088.451.051.157.154.276.266.399m-14.463 26.893c0 .012-.01.012-.01.022 0-.01.01-.01.01-.022m2.59 6.614a2.74 2.74 0 0 0-.307-1.273c-.193-.372-.52-.69-.904-.952-.465-.296-1.203-.582-2.235-.866a18.962 18.962 0 0 1-1.136-.345 3.972 3.972 0 0 1-.655-.295 1.16 1.16 0 0 1-.377-.343.833.833 0 0 1-.12-.436v-.117c.032-.237.084-.429.149-.586.106-.24.24-.394.438-.52.183-.104.447-.163.772-.163.308 0 .589.06.893.2.792.362 1.43.929 1.934 1.756.064.09.14.164.21.229a.59.59 0 0 0 .282.082c.12 0 .22-.03.327-.08h.002a.793.793 0 0 0 .24-.203.611.611 0 0 0 .086-.306v-.01a.77.77 0 0 0-.036-.25l-.922-2.18a.851.851 0 0 0-.23-.297.585.585 0 0 0-.335-.098.703.703 0 0 0-.415.109c-.057.055-.118.104-.128.185a.35.35 0 0 0-.043.166 1.327 1.327 0 0 1-.18-.097c-.62-.292-1.222-.45-1.825-.45-.655 0-1.263.24-1.783.69-.311.256-.57.572-.717.94a2.831 2.831 0 0 0-.245 1.194c0 .453.086.864.282 1.236.181.356.465.667.839.917v.01c.223.136.524.283.89.423.37.142.797.283 1.32.43v-.012c.04.012.074.024.096.027.396.13.733.234.993.341.31.107.52.218.66.3v.01c.188.132.33.268.42.435.084.17.129.35.129.574 0 .192-.026.364-.094.49-.06.163-.16.295-.295.422-.286.244-.579.384-.981.396h-.163c-.595 0-1.171-.204-1.758-.622h-.002c-.574-.387-1.039-.905-1.414-1.55a.535.535 0 0 0-.19-.228.51.51 0 0 0-.304-.101.788.788 0 0 0-.273.066v.01a.63.63 0 0 0-.263.214.457.457 0 0 0-.1.297v.01c0 .083.021.172.043.252l.887 2.364c.03.116.101.246.22.325a.683.683 0 0 0 .355.11h.01c.064 0 .143 0 .201-.044a.442.442 0 0 0 .248-.189.744.744 0 0 0 .112-.29c0-.02 0-.043.016-.057h.012c.02.018.048.037.094.05.124.061.294.136.526.23.633.256 1.222.391 1.808.391.82 0 1.538-.301 2.101-.85.268-.27.47-.583.62-.927.14-.349.215-.722.215-1.134m63.295-23.818h-.005a.598.598 0 0 0-.373-.15.739.739 0 0 0-.266.063c-.06.05-.134.106-.199.177-.073.087-.136.166-.232.254a3.964 3.964 0 0 1-.896.687 2.712 2.712 0 0 1-1.236.3 2.83 2.83 0 0 1-1.24-.26 2.415 2.415 0 0 1-.887-.789c-.41-.612-.641-1.406-.641-2.424v-.077c.024-.892.142-1.628.368-2.204.196-.582.506-1.01.902-1.31.368-.266.688-.379.993-.379.102 0 .207.012.3.034h.006c.284.076.45.192.563.324.066.077.143.257.23.542v.01c.08.3.209.557.37.751.17.192.373.335.614.384h.01c.074 0 .135.013.2.013.244 0 .463-.072.664-.214h.007a1.04 1.04 0 0 0 .35-.418 1.27 1.27 0 0 0 .132-.565v-.128a1.675 1.675 0 0 0-.235-.623 2.987 2.987 0 0 0-.53-.573 3.38 3.38 0 0 0-1.106-.58 4.912 4.912 0 0 0-1.408-.194h-.007c-.61 0-1.18.133-1.719.37-.521.254-.989.631-1.409 1.109-.847.998-1.26 2.271-1.26 3.771v.011c0 .71.095 1.365.29 1.935.187.589.484 1.103.87 1.54.395.444.845.768 1.36.995a4.44 4.44 0 0 0 1.717.32h.01c.785 0 1.5-.154 2.148-.474.629-.307 1.183-.77 1.666-1.377a.597.597 0 0 0 .136-.38.475.475 0 0 0-.084-.263c-.034-.091-.108-.152-.173-.207m-38.56 0a.634.634 0 0 0-.378-.15h-.01a.672.672 0 0 0-.258.062.981.981 0 0 0-.198.178c-.066.086-.147.166-.22.254a4.56 4.56 0 0 1-.902.686 2.78 2.78 0 0 1-1.235.301c-.488 0-.895-.092-1.246-.26a2.215 2.215 0 0 1-.882-.79c-.433-.611-.64-1.406-.64-2.424v-.076c.006-.892.15-1.628.351-2.205.217-.582.516-1.01.921-1.309.353-.266.672-.38.981-.38.093 0 .201.013.314.034.275.077.455.192.558.325.06.076.143.256.212.542v.01c.096.3.224.556.391.75.149.193.365.336.605.385h.01c.077 0 .13.012.203.012.228 0 .472-.071.669-.213h.007c.148-.102.274-.25.348-.418.083-.183.113-.354.113-.565v-.128a1.28 1.28 0 0 0-.224-.623 2.29 2.29 0 0 0-.528-.573 3.309 3.309 0 0 0-1.097-.58 4.91 4.91 0 0 0-1.414-.194c-.61 0-1.192.132-1.71.37-.535.253-1.003.63-1.418 1.108-.858.999-1.272 2.272-1.272 3.772v.01c0 .71.092 1.366.284 1.935.192.59.491 1.104.888 1.54.382.445.832.768 1.37.995.503.216 1.081.32 1.691.32h.007c.796 0 1.518-.153 2.161-.474.638-.306 1.192-.77 1.664-1.376a.56.56 0 0 0 .14-.38.398.398 0 0 0-.093-.264.455.455 0 0 0-.164-.207m4.054-11.68c-.158.07-.286.16-.412.268a1.322 1.322 0 0 0-.263.387c-.059.14-.079.309-.079.475 0 .154.02.316.079.462.07.136.15.268.263.385.126.107.254.19.412.25.134.064.279.08.442.08.168 0 .32-.016.463-.08.142-.06.275-.143.4-.25.09-.117.196-.25.262-.385a.997.997 0 0 0 .095-.462c0-.166-.02-.335-.095-.475-.066-.15-.173-.273-.262-.387a1.817 1.817 0 0 0-.4-.267 1.424 1.424 0 0 0-.463-.078c-.163 0-.308.03-.442.078m2.474 13.066a.618.618 0 0 0-.344-.1h-.016c-.295 0-.502-.057-.613-.124a.357.357 0 0 1-.113-.132.55.55 0 0 1-.03-.188v-7.71a.696.696 0 0 0-.033-.24.513.513 0 0 0-.197-.298.596.596 0 0 0-.348-.102v.01a.867.867 0 0 0-.202.027l-1.759.525a.795.795 0 0 0-.347.222.61.61 0 0 0-.145.386c0 .08.017.154.057.24a.56.56 0 0 0 .243.265c.114.06.228.081.357.081.207 0 .354.014.466.035a.35.35 0 0 1 .1.034c0 .01.012.026.026.047.012.133.041.401.041.762v5.628a.541.541 0 0 1-.041.254c-.04.097-.08.15-.176.194-.085.06-.221.079-.4.079h-.015c-.08 0-.15.012-.218.038a.59.59 0 0 0-.29.192.75.75 0 0 0-.092.332v.05a.529.529 0 0 0 .23.487c.069.066.187.106.29.113l.018.01h3.208c.073 0 .163-.01.227-.037a.562.562 0 0 0 .287-.218.584.584 0 0 0 .092-.352c0-.085-.019-.154-.032-.242a.56.56 0 0 0-.23-.273m43.665-8.44a.544.544 0 0 0-.325-.084h-3.093a.57.57 0 0 0-.228.031.666.666 0 0 0-.302.218.68.68 0 0 0-.076.35c0 .09.011.166.029.241.047.115.132.22.223.281.12.066.233.081.354.081h.026c.325 0 .574.054.688.109.061.033.1.06.115.08a.08.08 0 0 1 .034.07v.01c0 .098-.05.283-.13.504l-1.704 4.531-2.212-4.952a.91.91 0 0 1-.047-.209c0-.014.03-.014.047-.028.062-.04.13-.055.265-.07.101-.017.247-.039.414-.039h.013c.081 0 .155 0 .235-.023a.54.54 0 0 0 .285-.224c.069-.109.08-.228.08-.356 0-.076 0-.154-.029-.23a.56.56 0 0 0-.217-.285.67.67 0 0 0-.354-.084h-3.366a.573.573 0 0 0-.517.255.681.681 0 0 0-.086.344c0 .09.01.166.033.242.044.114.12.219.222.28a.65.65 0 0 0 .348.081c.15 0 .27.024.355.054.065.015.116.067.162.098l.022.017c.013 0 .064.062.114.163.058.102.127.231.198.41l3.125 6.805c-.3.894-.597 1.568-.838 2.012-.122.235-.25.4-.355.498a.397.397 0 0 1-.109.083c-.03.022-.047.022-.047.022h-.004a.806.806 0 0 1-.238-.07 2.445 2.445 0 0 1-.416-.211c-.185-.108-.346-.18-.485-.246-.14-.06-.271-.085-.4-.085-.145 0-.284.01-.398.06a.715.715 0 0 0-.427.35c-.098.16-.138.351-.138.57 0 .149.029.281.097.429a.89.89 0 0 0 .287.356v.01c.288.25.682.363 1.128.363h.015c.667 0 1.24-.134 1.704-.42.479-.294.821-.738 1.052-1.293l3.412-8.762c.098-.273.193-.493.3-.664.075-.178.156-.294.208-.356a.442.442 0 0 1 .21-.136c.106-.037.248-.06.409-.06h.007c.063 0 .15 0 .23-.024a.663.663 0 0 0 .291-.224.821.821 0 0 0 .078-.356c0-.076-.024-.154-.037-.23a.523.523 0 0 0-.237-.285m69.492-20.798h4.136c-.052-.772-.258-1.37-.616-1.826a1.767 1.767 0 0 0-.644-.536 1.915 1.915 0 0 0-.82-.166h-.159c-.308.01-.572.116-.786.26-.24.165-.443.38-.633.7-.225.402-.374.894-.463 1.461-.005.043-.005.073-.015.097m4.67 5.704a4.965 4.965 0 0 1-2.345.584h-.012c-.845 0-1.582-.174-2.2-.522-.608-.358-1.099-.9-1.446-1.595-.427-.845-.652-1.823-.652-2.932 0-1.192.29-2.287.888-3.233v-.014a3.93 3.93 0 0 1 1.27-1.296c.495-.296 1.06-.436 1.668-.436.068-.017.15-.017.252-.017.095 0 .183 0 .313.017.54.034 1.05.173 1.498.419a3.86 3.86 0 0 1 1.188 1.057 4.6 4.6 0 0 1 .922 2.798v.065a.669.669 0 0 1-.09.36.536.536 0 0 1-.273.238.999.999 0 0 1-.252.032h-5.492v.036c0 .999.206 1.82.616 2.505.26.432.558.733.934.938.356.205.785.322 1.299.322h.045c.424 0 .858-.137 1.335-.416.417-.258.722-.557.895-.823a.728.728 0 0 1 .207-.218c.073-.07.18-.088.292-.088.121 0 .237.04.356.098v.01c.093.052.16.123.209.204.063.085.09.175.09.275 0 .134-.04.252-.11.371-.326.508-.795.926-1.406 1.265m-113.785 18.574h4.14c-.036-.776-.252-1.373-.598-1.826a1.997 1.997 0 0 0-.655-.536 1.834 1.834 0 0 0-.81-.176h-.184a1.649 1.649 0 0 0-.787.27 2.33 2.33 0 0 0-.612.68c-.228.422-.374.914-.472 1.49-.007.034-.007.058-.022.098m4.654 5.692a4.814 4.814 0 0 1-2.327.588h-.011c-.845 0-1.582-.168-2.187-.522a3.845 3.845 0 0 1-1.448-1.59c-.434-.841-.64-1.829-.64-2.937 0-1.21.282-2.288.87-3.242.349-.563.774-1.01 1.28-1.299.493-.301 1.043-.442 1.662-.442.077-.015.146-.015.255-.015.089 0 .18 0 .298.015.55.026 1.056.17 1.507.42.46.253.851.608 1.175 1.043.614.812.932 1.756.932 2.815v.063c0 .133-.026.26-.078.365a.51.51 0 0 1-.282.23.751.751 0 0 1-.242.043l-5.487-.01v.045c0 .99.21 1.825.606 2.49.259.438.559.743.916.959.384.202.812.315 1.306.315h.057c.422 0 .864-.142 1.325-.42.422-.257.728-.553.904-.823a.569.569 0 0 1 .206-.239.516.516 0 0 1 .283-.082c.13 0 .25.05.358.114a.521.521 0 0 1 .22.207.516.516 0 0 1 .085.285.64.64 0 0 1-.106.35c-.322.513-.804.939-1.437 1.276m5.243-29.97h4.143c-.051-.772-.252-1.371-.605-1.826a1.844 1.844 0 0 0-.658-.536 1.823 1.823 0 0 0-.806-.166h-.188c-.284.01-.546.115-.77.26-.231.164-.431.38-.625.7a4.53 4.53 0 0 0-.47 1.46c-.01.044-.01.074-.021.098m4.67 5.704a4.912 4.912 0 0 1-2.342.583h-.01c-.855 0-1.589-.173-2.187-.521-.633-.359-1.099-.9-1.455-1.596-.437-.845-.648-1.822-.648-2.931 0-1.192.307-2.288.874-3.234v-.013c.36-.559.78-.997 1.282-1.297a3.204 3.204 0 0 1 1.669-.436c.074-.017.16-.017.26-.017.087 0 .181 0 .301.017a3.634 3.634 0 0 1 1.508.42 3.86 3.86 0 0 1 1.18 1.057c.606.804.93 1.747.93 2.797v.065a.644.644 0 0 1-.107.361.457.457 0 0 1-.268.237c-.075.02-.173.033-.243.033h-5.49v.036c0 .999.207 1.82.62 2.504.24.433.56.734.91.938.373.206.81.323 1.312.323h.06c.405 0 .844-.137 1.316-.416.43-.258.72-.557.9-.823a.559.559 0 0 1 .216-.218c.073-.07.166-.088.276-.088.123 0 .242.04.361.098v.01a.973.973 0 0 1 .23.204.583.583 0 0 1 .073.275.67.67 0 0 1-.113.37c-.316.509-.801.927-1.416 1.266m-65.903 42.597h4.142c-.043-.77-.238-1.375-.603-1.826a2.047 2.047 0 0 0-.66-.538c-.235-.117-.498-.166-.81-.166h-.172a1.555 1.555 0 0 0-.787.27c-.23.143-.44.37-.602.681-.243.415-.393.91-.489 1.477a.311.311 0 0 1-.019.102m4.67 5.696a4.887 4.887 0 0 1-2.349.584h-.01c-.838 0-1.58-.176-2.193-.526-.61-.354-1.092-.889-1.437-1.6-.445-.844-.645-1.816-.645-2.923 0-1.207.279-2.295.869-3.233v-.018c.356-.56.783-1.005 1.284-1.304a3.251 3.251 0 0 1 1.657-.429c.072-.014.162-.014.266-.014.086 0 .178 0 .303.014.545.03 1.048.171 1.499.425.443.254.842.605 1.176 1.05.618.8.93 1.75.93 2.804v.065c0 .13-.018.254-.085.355a.49.49 0 0 1-.278.237.58.58 0 0 1-.25.048l-5.491-.012v.044c0 .993.218 1.818.625 2.496.249.425.543.73.915.954.369.198.808.304 1.32.304h.039c.431 0 .86-.13 1.326-.416.423-.265.721-.554.9-.825a.66.66 0 0 1 .209-.215.42.42 0 0 1 .278-.084h.01c.128 0 .235.035.363.102v.01c.086.043.15.116.207.197.066.08.092.177.092.283a.69.69 0 0 1-.099.346v.015c-.34.505-.81.93-1.43 1.271m36.025-53.997h4.124c-.036-.772-.243-1.371-.6-1.826a1.755 1.755 0 0 0-.654-.536 1.806 1.806 0 0 0-.81-.166h-.176c-.295.01-.563.115-.78.26-.225.164-.44.38-.607.7-.25.401-.395.894-.49 1.461 0 .043 0 .073-.007.097m4.663 5.704a4.934 4.934 0 0 1-2.352.583h-.016c-.827 0-1.564-.173-2.182-.521-.614-.359-1.088-.9-1.44-1.596-.435-.845-.645-1.822-.645-2.931 0-1.192.286-2.288.876-3.234v-.013c.353-.559.769-.997 1.272-1.297.488-.295 1.064-.436 1.663-.436.081-.017.169-.017.244-.017.103 0 .205 0 .314.017a3.658 3.658 0 0 1 1.512.42c.437.251.85.61 1.175 1.057.616.804.93 1.747.93 2.797v.066a.674.674 0 0 1-.086.36.486.486 0 0 1-.281.237c-.072.02-.164.033-.25.033h-5.478v.036c0 .999.194 1.82.594 2.504.263.433.571.734.933.938.373.206.804.323 1.312.323h.05c.422 0 .851-.137 1.316-.416.435-.258.74-.557.905-.823a.557.557 0 0 1 .202-.218.45.45 0 0 1 .281-.088h.007c.133 0 .25.04.365.098v.01a.65.65 0 0 1 .22.204.503.503 0 0 1 .091.275c0 .134-.066.252-.12.37-.308.509-.795.927-1.412 1.266m86.018-.518c.043-.013.056-.032.077-.062v.362c0 .088 0 .164.047.238a.508.508 0 0 0 .22.284c.103.062.224.081.35.092h1.958c.088 0 .158-.01.247-.042.12-.024.213-.112.297-.216.07-.11.08-.23.08-.356a.706.706 0 0 0-.038-.24.476.476 0 0 0-.235-.28c-.102-.068-.233-.078-.351-.078h-.015c-.325 0-.57-.057-.674-.115-.061-.037-.1-.066-.112-.092a.279.279 0 0 1-.032-.14v-7.845c0-.088 0-.165-.031-.227a.473.473 0 0 0-.197-.288.56.56 0 0 0-.323-.104h-.018c-.045 0-.096 0-.162.017l-2.15.437c-.132.04-.275.092-.371.209a.632.632 0 0 0-.102.647c.049.111.133.218.247.279a.7.7 0 0 0 .36.082c.275 0 .487 0 .635.012.087.01.134.01.179.01h.05c.017.011.03.011.038.029a.26.26 0 0 1 .081.17c.022.076.022.2.022.333v5.224c-.488.47-.958.814-1.373 1.042-.461.244-.859.346-1.21.346-.245 0-.449-.047-.64-.132-.246-.126-.44-.333-.58-.67-.164-.341-.231-.811-.231-1.4v-6.013a.637.637 0 0 0-.13-.427.44.44 0 0 0-.178-.143.655.655 0 0 0-.228-.05c-.064 0-.143.022-.221.037l-1.808.444a.576.576 0 0 0-.347.203.596.596 0 0 0-.145.38c0 .086.019.164.055.247a.495.495 0 0 0 .237.279c.106.06.24.082.364.082.213 0 .383 0 .51.02.047 0 .083.018.099.018.008.02.008.083.027.147.01.1.021.24.021.408v4.684c0 .563.063 1.048.226 1.485.154.43.4.793.72 1.097.516.45 1.178.685 1.938.685h.014a3.89 3.89 0 0 0 1.593-.363c.396-.17.799-.429 1.21-.728zm21.93-5.305c-.005-.676-.175-1.215-.497-1.678a1.831 1.831 0 0 0-.651-.56 1.933 1.933 0 0 0-.827-.174c-.212 0-.422.04-.612.14a2.03 2.03 0 0 0-.57.409 2.285 2.285 0 0 0-.465.788 2.787 2.787 0 0 0-.166 1.012c0 .697.166 1.239.447 1.645.163.241.354.407.59.516.238.115.512.169.833.169.3 0 .562-.045.77-.143.235-.113.445-.25.598-.46.363-.417.546-.951.55-1.664m-3.795 6.256v.015a1.755 1.755 0 0 0-.662.43.614.614 0 0 0-.176.449c0 .122.021.226.1.346.095.121.24.247.443.375.414.242.9.395 1.444.43.249.019.481.031.694.031.596 0 1.1-.053 1.506-.157.414-.11.745-.25.965-.432.164-.142.262-.278.357-.415.068-.14.1-.288.1-.447a.343.343 0 0 0-.054-.196.507.507 0 0 0-.233-.195c-.212-.152-.574-.287-1.073-.394-.166-.036-.418-.07-.746-.112a24.216 24.216 0 0 0-1.234-.112 4.495 4.495 0 0 0-1.431.384m7.04-9.52c.145.203.225.423.225.642v.011c0 .263-.08.495-.232.704-.17.195-.333.329-.564.385h-.01a.578.578 0 0 1-.186.026c-.29 0-.549-.126-.809-.33-.109-.082-.196-.152-.275-.2-.013-.04-.047-.04-.054-.057-.02.017-.048.017-.064.057-.027 0-.04.022-.065.048.422.571.657 1.249.657 1.97v.012c0 .49-.098.951-.308 1.376a3.44 3.44 0 0 1-.904 1.147c-.744.628-1.616.954-2.554.954h-.019c-.43 0-.888-.079-1.315-.236-.164.103-.303.205-.377.3-.091.105-.126.188-.126.252 0 .013 0 .013.021.03.002.012.039.043.093.079.086.066.28.128.531.177.23.053.779.1 1.615.203 1.07.104 1.89.241 2.456.443.098.034.2.066.255.094h.013c.465.192.825.44 1.086.758.237.317.367.703.367 1.128a2.01 2.01 0 0 1-.531 1.396c-.35.406-.851.71-1.498.955a7.935 7.935 0 0 1-2.726.495c-.18 0-.346-.01-.513-.024a6.277 6.277 0 0 1-2.363-.584c-.446-.204-.796-.448-1.05-.735a1.502 1.502 0 0 1-.376-.98v-.017c0-.212.045-.43.147-.632.1-.202.237-.377.408-.56.277-.24.62-.464 1.052-.662a1.664 1.664 0 0 1-.269-.154c-.21-.14-.37-.342-.472-.565a1.318 1.318 0 0 1-.086-.477c0-.36.117-.7.36-1.004.18-.222.433-.425.723-.623a3.143 3.143 0 0 1-.82-1.022 3.422 3.422 0 0 1-.367-1.588c0-.496.104-.974.304-1.4.195-.434.5-.82.883-1.164.68-.584 1.422-.925 2.222-.99.106-.023.217-.025.318-.025h.016c.807 0 1.57.277 2.26.802.268-.233.462-.373.616-.474.4-.258.73-.414 1.058-.45.071-.013.162-.013.246-.013.204 0 .415.032.584.12.16.085.311.226.418.383zm-37.318 3.264c0-.676-.166-1.215-.5-1.678a1.696 1.696 0 0 0-.646-.56 1.912 1.912 0 0 0-.823-.174c-.225 0-.41.04-.619.14-.175.088-.37.21-.57.409-.207.223-.342.482-.46.788a2.913 2.913 0 0 0-.165 1.012c0 .697.15 1.239.422 1.645.181.241.38.407.604.516.241.115.529.169.86.169.274 0 .538-.045.75-.143.238-.113.432-.25.609-.46.356-.417.538-.951.538-1.664m-3.798 6.256v.015c-.31.124-.529.286-.663.43a.797.797 0 0 0-.186.449.59.59 0 0 0 .13.346c.074.121.237.247.442.375.41.242.88.395 1.433.43.25.019.488.031.691.031.592 0 1.101-.053 1.498-.157.423-.11.745-.25.973-.432.164-.142.275-.278.346-.415a.957.957 0 0 0 .107-.447c0-.076-.005-.137-.054-.196a.456.456 0 0 0-.224-.195c-.215-.152-.58-.287-1.07-.394h-.007c-.157-.036-.423-.07-.744-.112a23.293 23.293 0 0 0-1.232-.112 4.502 4.502 0 0 0-1.44.384m7.045-9.52c.15.203.233.423.233.642v.01c0 .264-.084.496-.233.705-.156.195-.336.329-.56.385h-.019a.504.504 0 0 1-.182.026c-.289 0-.558-.126-.806-.33-.115-.082-.202-.152-.298-.2 0-.04-.024-.04-.045-.057-.02.017-.03.017-.064.057-.01 0-.034.022-.068.048.454.571.66 1.249.66 1.97v.012c0 .49-.088.951-.296 1.376-.211.433-.522.806-.909 1.147-.747.628-1.617.954-2.557.954-.46 0-.901-.079-1.334-.236-.157.103-.296.205-.365.3-.094.105-.13.188-.13.252v.03c.025.013.06.043.108.079.09.066.257.128.53.177.223.053.779.1 1.618.203 1.069.104 1.888.241 2.46.443.088.034.173.066.256.094h.005c.468.192.838.44 1.08.758.254.317.385.703.385 1.128 0 .527-.188 1.014-.532 1.396-.358.406-.866.71-1.512.955a7.915 7.915 0 0 1-2.725.495c-.17 0-.338-.01-.514-.024a6.303 6.303 0 0 1-2.36-.584c-.444-.204-.81-.448-1.038-.735-.248-.287-.39-.62-.39-.98v-.017c0-.203.05-.43.146-.632.1-.202.244-.377.432-.56.251-.24.603-.464 1.037-.662a1.126 1.126 0 0 1-.27-.154 1.318 1.318 0 0 1-.47-.565 1.09 1.09 0 0 1-.096-.477c0-.36.127-.7.373-1.004.18-.221.428-.425.713-.623a3.41 3.41 0 0 1-.812-1.022c-.25-.467-.369-1.001-.369-1.588 0-.496.095-.974.3-1.4.197-.434.5-.82.881-1.164.678-.584 1.435-.925 2.233-.99.08-.023.215-.025.325-.025.806 0 1.57.277 2.246.802.294-.233.49-.373.624-.474.395-.258.743-.414 1.065-.45.086-.013.162-.013.245-.013.207 0 .41.032.577.12.16.085.312.226.422.383zm-34.422 5.674c-.458.873-.962 1.524-1.534 1.962-.535.423-1.099.613-1.718.613h-1.69c-.259 0-.493 0-.652-.01-.08-.013-.15-.018-.195-.03-.046 0-.068-.015-.08-.015a.406.406 0 0 1-.174-.218c-.06-.115-.071-.294-.071-.524v-10.015c0-.168.01-.305.044-.388.051-.11.116-.171.159-.226.058-.028.167-.09.362-.124.168-.028.424-.054.72-.054.074 0 .16-.017.24-.038a.502.502 0 0 0 .283-.225.758.758 0 0 0 .08-.351c0-.072 0-.155-.03-.236a.544.544 0 0 0-.21-.277.749.749 0 0 0-.363-.086h-4.44c-.078 0-.152.012-.241.033a.666.666 0 0 0-.298.214.93.93 0 0 0-.068.351c0 .095 0 .167.035.251.033.101.13.215.23.276.101.062.23.088.343.088h.007c.45 0 .752.088.937.211a.63.63 0 0 1 .202.24.786.786 0 0 1 .074.358v10.012c0 .177-.027.311-.065.411a.435.435 0 0 1-.16.208c-.051.045-.155.095-.32.124-.16.04-.38.04-.63.04l-.01.017c-.06 0-.147.01-.23.03-.112.043-.233.117-.28.217a.66.66 0 0 0-.098.35c0 .09.021.165.034.239.045.118.119.223.232.284.111.064.228.081.352.092h8.732c.12 0 .24-.042.35-.118.113-.066.16-.17.224-.297l1.043-2.912v-.016c.016-.062.033-.126.033-.207a.674.674 0 0 0-.042-.233.602.602 0 0 0-.221-.287.687.687 0 0 0-.355-.088.6.6 0 0 0-.318.088.702.702 0 0 0-.223.257zm-12.417-2.648a.954.954 0 0 0-.47-.108h-3.785a1.08 1.08 0 0 0-.329.043.692.692 0 0 0-.366.298.9.9 0 0 0-.063.806.61.61 0 0 0 .288.354c.141.082.28.124.47.124h3.786a.926.926 0 0 0 .327-.062.604.604 0 0 0 .37-.281.862.862 0 0 0 .11-.463.86.86 0 0 0-.05-.332.627.627 0 0 0-.288-.378m-74.082 22.354v-1.044a.595.595 0 0 0-.057-.273.968.968 0 0 0-.178-.222.636.636 0 0 0-.35-.115h-.005c-.073 0-.136.02-.203.039l-2.037.614a.63.63 0 0 0-.342.22.565.565 0 0 0-.138.369v.013c0 .075 0 .167.045.245a.471.471 0 0 0 .248.279c.116.063.24.084.377.084.275 0 .505.011.655.017.08.01.152.021.177.038h.036c.018.024.025.088.039.203.015.1.019.243.019.41v5.749a.57.57 0 0 1-.037.22.474.474 0 0 1-.106.115.583.583 0 0 1-.296.118c-.14.038-.312.057-.525.057a.823.823 0 0 0-.247.038.491.491 0 0 0-.272.212.571.571 0 0 0-.113.328v.057c0 .073 0 .16.036.227.03.109.116.22.217.28.101.064.215.08.332.08h4.08c.076 0 .159-.01.24-.038a.54.54 0 0 0 .293-.202.604.604 0 0 0 .09-.347c0-.084-.018-.167-.027-.245a.559.559 0 0 0-.237-.29.61.61 0 0 0-.36-.1h-.01c-.29 0-.535-.019-.722-.032-.197-.032-.349-.07-.405-.105-.08-.038-.136-.079-.166-.144-.034-.051-.053-.113-.053-.229v-4.631c.511-.812 1.033-1.396 1.545-1.728a.855.855 0 0 1 .366-.123h.01c.032 0 .096 0 .167.04.087.026.175.06.3.125.25.14.512.224.78.224h.011c.15 0 .288-.034.427-.076a.802.802 0 0 0 .454-.4c.097-.186.143-.4.143-.647a.87.87 0 0 0-.096-.428 1.06 1.06 0 0 0-.277-.36c-.24-.2-.55-.318-.877-.318h-.02c-.537 0-1.095.196-1.631.56-.432.278-.864.658-1.301 1.132m7.425 3.528c0 1.218.215 2.162.669 2.827.207.332.463.57.742.728.286.162.616.254.995.254.382 0 .721-.092 1.007-.254a2.06 2.06 0 0 0 .74-.737c.427-.674.64-1.61.64-2.818v-.01c0-1.197-.213-2.145-.64-2.814-.22-.35-.472-.585-.75-.738a1.934 1.934 0 0 0-.997-.252 1.959 1.959 0 0 0-1.737.99c-.454.67-.669 1.617-.669 2.813zm-.76 3.67a4.358 4.358 0 0 1-.886-1.596 7.113 7.113 0 0 1-.292-2.074v-.01c0-1.402.411-2.603 1.225-3.564.42-.475.878-.842 1.412-1.078a4.054 4.054 0 0 1 1.707-.37c.674 0 1.275.133 1.8.37a4.061 4.061 0 0 1 1.414 1.109c.762.915 1.142 2.107 1.142 3.532v.01c0 1.368-.373 2.542-1.123 3.476a3.888 3.888 0 0 1-1.419 1.17c-.539.264-1.14.386-1.814.386-.646 0-1.248-.104-1.782-.333a3.814 3.814 0 0 1-1.384-1.029m-19.189-10.857v4.382h2.716c.36 0 .68-.064.975-.178a2.2 2.2 0 0 0 .783-.544c.233-.24.412-.526.534-.854.11-.327.167-.717.167-1.146 0-.356-.057-.678-.18-.97a2.374 2.374 0 0 0-.581-.773c-.516-.475-1.09-.705-1.74-.705h-1.486c-.486 0-.812.02-.983.06-.05 0-.1.01-.12.017v.018c-.02 0-.025.057-.049.128a3.048 3.048 0 0 0-.036.565m-1.882 10.015v-10.015c0-.142-.012-.258-.06-.34a.494.494 0 0 0-.205-.235c-.193-.136-.526-.213-.985-.213h-.01a.637.637 0 0 1-.358-.095.467.467 0 0 1-.212-.286.78.78 0 0 1-.045-.245c0-.118.017-.247.08-.35a.55.55 0 0 1 .293-.227.555.555 0 0 1 .242-.042h6.193c.994 0 1.91.312 2.713.92.482.34.84.75 1.087 1.227.251.464.375 1.009.375 1.578v.026c0 .582-.124 1.114-.309 1.588a3.72 3.72 0 0 1-.926 1.256c-.815.693-1.832 1.045-3.034 1.045l-2.957-.01v4.417c0 .14.03.25.066.342.051.1.12.163.207.228.197.137.533.216 1.01.216h.023c.106 0 .242.027.34.1.11.066.197.18.244.29.017.077.017.158.017.244a.612.612 0 0 1-.08.351.542.542 0 0 1-.297.199.629.629 0 0 1-.224.038h-4.493a.712.712 0 0 1-.356-.08.623.623 0 0 1-.244-.287c-.01-.077-.021-.16-.021-.238 0-.126.02-.259.096-.359a.485.485 0 0 1 .29-.213.751.751 0 0 1 .235-.045h.008c.374 0 .65-.047.84-.124.204-.083.332-.187.398-.32a.737.737 0 0 0 .06-.342m151.306-24.472c0 .172.013.29.064.409.05.104.109.187.19.277.175.14.468.259.893.3h.113c.347 0 .714-.098 1.112-.31.376-.194.77-.5 1.187-.884v-2.389c-.856.22-1.63.536-2.258.915-.445.279-.785.553-.997.841-.198.273-.304.55-.304.84m-1.65 1.138a2.33 2.33 0 0 1-.244-1.088c0-.595.21-1.145.626-1.61.413-.498 1.005-.914 1.795-1.29.88-.436 1.885-.764 3.032-1.005v-.869c-.007-.415-.118-.81-.36-1.138h-.005a1.105 1.105 0 0 0-.444-.403 1.239 1.239 0 0 0-.583-.137h-.039c-.48 0-.85.099-1.11.273a1.074 1.074 0 0 0-.285.263.477.477 0 0 0-.08.257c0 .294-.035.562-.162.777a.948.948 0 0 1-.534.471 1.28 1.28 0 0 1-.514.099c-.26 0-.508-.1-.711-.276v-.011a.97.97 0 0 1-.245-.368 1.017 1.017 0 0 1-.097-.443v-.011c0-.038.014-.074.014-.117.018-.344.16-.657.39-.93.233-.268.567-.504.968-.705a4.977 4.977 0 0 1 2.22-.527c.185 0 .355.017.54.03.672.06 1.232.22 1.687.497.433.276.75.67.923 1.156.122.32.177.688.177 1.094v4.953c0 .192.017.352.043.48.021.134.06.207.098.267.015.04.041.053.054.07a.12.12 0 0 0 .097.039h.014a.552.552 0 0 0 .253-.105h.01a.865.865 0 0 1 .327-.076.56.56 0 0 1 .313.076c.072.057.14.136.211.228v.01c.048.084.091.199.091.308a.662.662 0 0 1-.09.298 1.352 1.352 0 0 1-.24.216c-.465.307-.938.478-1.395.478-.203 0-.403-.032-.58-.098a1.32 1.32 0 0 1-.468-.292 1.507 1.507 0 0 1-.371-.707c-.445.337-.881.598-1.324.783a3.619 3.619 0 0 1-1.533.346h-.01c-.637 0-1.219-.15-1.71-.467-.327-.218-.583-.479-.75-.802m-43.947-1.137c0 .172.029.29.081.409a.823.823 0 0 0 .19.277c.171.14.453.259.873.3h.126c.347 0 .715-.099 1.106-.31.382-.194.774-.5 1.197-.884v-2.389c-.87.22-1.616.536-2.253.915-.464.278-.79.552-1 .841-.22.273-.32.55-.32.84m-1.63 1.138a2.232 2.232 0 0 1-.257-1.088c0-.595.214-1.145.631-1.611.404-.497 1.018-.914 1.796-1.289.877-.436 1.895-.764 3.033-1.005v-.869a1.948 1.948 0 0 0-.36-1.138h-.01a1.07 1.07 0 0 0-.446-.403 1.202 1.202 0 0 0-.567-.138h-.044c-.495 0-.843.1-1.107.273a.747.747 0 0 0-.286.263.35.35 0 0 0-.092.258c0 .294-.043.561-.166.777a.904.904 0 0 1-.524.471c-.157.064-.319.099-.51.099-.279 0-.528-.1-.718-.277v-.01a.85.85 0 0 1-.243-.368 1.017 1.017 0 0 1-.096-.444v-.01c0-.039.007-.074.007-.117.024-.344.174-.657.399-.93.228-.268.551-.504.971-.705a4.933 4.933 0 0 1 2.22-.527c.183 0 .353.017.55.03.653.06 1.222.22 1.663.497.443.275.753.67.93 1.156.114.32.177.688.177 1.094v4.953c0 .191.019.352.045.48a.48.48 0 0 0 .09.266c.005.04.04.054.048.071a.172.172 0 0 0 .109.038h.01c.04 0 .139-.027.25-.104h.019a.884.884 0 0 1 .326-.077c.1 0 .209.013.297.077a.663.663 0 0 1 .215.228v.01c.047.084.09.198.09.307a.658.658 0 0 1-.09.3 1.173 1.173 0 0 1-.226.215c-.467.307-.942.477-1.408.477-.212 0-.4-.031-.578-.097a1.05 1.05 0 0 1-.444-.292 1.404 1.404 0 0 1-.384-.707c-.452.337-.877.598-1.316.783a3.703 3.703 0 0 1-1.55.346c-.637 0-1.226-.15-1.714-.467-.327-.218-.59-.479-.743-.803m-72.788-1.137c0 .172.021.29.068.41a.77.77 0 0 0 .197.277c.16.14.452.258.87.299h.13c.346 0 .688-.098 1.103-.31.371-.194.777-.5 1.19-.884l.01-2.008v-.38a8.535 8.535 0 0 0-2.266.914c-.453.279-.791.553-1.002.842-.219.273-.3.55-.3.84m-1.644 1.137a2.255 2.255 0 0 1-.253-1.087c0-.596.223-1.145.633-1.611.404-.497 1.01-.914 1.795-1.29.874-.435 1.886-.763 3.027-1.005v-.868c0-.416-.106-.81-.354-1.138a1.266 1.266 0 0 0-.446-.404 1.302 1.302 0 0 0-.58-.137H261.578c-.47 0-.84.099-1.106.273a.876.876 0 0 0-.273.263.397.397 0 0 0-.085.257c0 .295-.052.562-.169.778a.906.906 0 0 1-.544.47 1.202 1.202 0 0 1-.504.1c-.264 0-.51-.1-.704-.277v-.01a.97.97 0 0 1-.256-.368 1.179 1.179 0 0 1-.089-.444v-.127c.034-.344.168-.658.412-.93.214-.268.548-.504.97-.705a4.914 4.914 0 0 1 2.208-.527c.186 0 .365.017.55.03.673.06 1.228.22 1.661.497.448.275.769.67.958 1.156.11.32.157.688.157 1.093v4.954c0 .191.007.352.05.48a.598.598 0 0 0 .094.266c.017.04.036.054.055.07.032.027.04.039.092.039h.014c.041 0 .131-.027.268-.104a.81.81 0 0 1 .315-.077h.018c.103 0 .202.013.287.077a.485.485 0 0 1 .21.228v.01a.543.543 0 0 1 .11.307c0 .109-.049.207-.11.299a.6.6 0 0 1-.224.216c-.452.306-.94.477-1.396.477-.2 0-.403-.031-.57-.098a1.138 1.138 0 0 1-.462-.292 1.746 1.746 0 0 1-.387-.706c-.446.337-.88.597-1.303.783a3.77 3.77 0 0 1-1.564.346c-.634 0-1.218-.15-1.707-.468-.319-.218-.582-.478-.741-.802m-20.453-1.137c0 .172.03.29.067.409a.771.771 0 0 0 .196.278c.179.14.47.258.888.298h.117c.334 0 .7-.097 1.103-.309.387-.194.78-.5 1.197-.884v-2.389c-.877.22-1.62.536-2.257.915-.46.279-.797.553-1.003.842a1.31 1.31 0 0 0-.308.84m-1.65 1.137a2.385 2.385 0 0 1-.237-1.088c0-.595.21-1.144.624-1.61.408-.497 1.005-.914 1.79-1.29.886-.435 1.896-.763 3.04-1.005v-.869a1.98 1.98 0 0 0-.367-1.138 1.11 1.11 0 0 0-.442-.403 1.277 1.277 0 0 0-.584-.137h-.045c-.484 0-.833.099-1.1.273a.956.956 0 0 0-.296.263.503.503 0 0 0-.07.257c0 .294-.057.562-.167.778a.912.912 0 0 1-.534.47 1.307 1.307 0 0 1-.512.1c-.276 0-.515-.1-.713-.277v-.01a.941.941 0 0 1-.254-.368c-.064-.136-.07-.286-.07-.444v-.128c.007-.343.151-.657.386-.93.228-.267.56-.503.979-.704a4.87 4.87 0 0 1 2.202-.527c.185 0 .373.016.54.03h.015c.665.06 1.233.22 1.674.497.436.275.757.67.938 1.156.118.32.17.687.17 1.093v4.954c0 .19 0 .351.047.48.01.133.045.206.083.266.02.04.04.054.069.07.018.027.042.039.094.039h.007a.6.6 0 0 0 .257-.105.931.931 0 0 1 .337-.076c.11 0 .22.012.303.076a.682.682 0 0 1 .205.229v.01h.005c.06.083.107.198.107.307a.527.527 0 0 1-.111.299.719.719 0 0 1-.235.216c-.45.306-.926.477-1.387.477-.216 0-.402-.031-.59-.098a1.33 1.33 0 0 1-.451-.292c-.174-.185-.289-.422-.384-.706a6.212 6.212 0 0 1-1.308.783 3.67 3.67 0 0 1-1.557.346c-.639 0-1.215-.15-1.702-.468a2.341 2.341 0 0 1-.756-.802m1.95 35.74a.533.533 0 0 0-.208-.311.597.597 0 0 0-.362-.11h-9.775a.547.547 0 0 0-.352.11.512.512 0 0 0-.219.294v.01l-.978 2.774a.512.512 0 0 0-.054.238v.01c0 .098.03.212.098.303.091.08.169.15.271.186.107.047.181.079.292.079h.011c.11 0 .22-.036.297-.096a.57.57 0 0 0 .195-.241c.272-.514.5-.926.686-1.242.09-.145.187-.282.249-.38.08-.1.15-.175.178-.215.212-.207.467-.34.788-.454.327-.114.712-.156 1.145-.156H230.205c.289 0 .521.01.68.04.074.013.153.03.19.052.01 0 .035.012.035.017l.008.01c.013.02.06.104.08.225.03.13.04.307.04.534v10.022c0 .128-.016.208-.075.29a.443.443 0 0 1-.165.155c-.112.084-.272.153-.504.195-.218.053-.486.071-.816.071h-.012c-.071 0-.14 0-.229.032a.497.497 0 0 0-.287.226.657.657 0 0 0-.08.35c0 .081.008.164.035.24a.628.628 0 0 0 .217.287.7.7 0 0 0 .344.088h5.043c.088 0 .163-.011.245-.035a.682.682 0 0 0 .294-.233.759.759 0 0 0 .093-.347.563.563 0 0 0-.046-.237.458.458 0 0 0-.232-.28.619.619 0 0 0-.354-.09h-.018c-.568 0-.986-.088-1.221-.21-.122-.075-.206-.143-.248-.22a.599.599 0 0 1-.082-.305v-10.02c0-.244.013-.425.033-.558.02-.06.025-.12.049-.147.019-.013.019-.032.019-.043l.016-.016s.008 0 .048-.022a.995.995 0 0 1 .26-.047c.124-.023.257-.023.444-.023h.472c.454 0 .82.042 1.143.156.322.114.576.247.792.454.03.04.094.115.17.215.224.297.542.853.958 1.624a.662.662 0 0 0 .199.236.485.485 0 0 0 .297.092c.1 0 .194-.025.277-.057a.758.758 0 0 0 .262-.201.518.518 0 0 0 .102-.303v-.01c0-.081-.01-.158-.034-.239zm27.714 11.697a.55.55 0 0 0-.37-.15.466.466 0 0 0-.266.095.716.716 0 0 0-.211.192c-.1.11-.285.25-.549.381a1.932 1.932 0 0 1-.829.214c-.109 0-.206 0-.282-.03a1.368 1.368 0 0 1-.29-.144.746.746 0 0 1-.16-.186c-.036-.082-.062-.213-.102-.393-.01-.174-.015-.403-.015-.676v-5.576h2.29c.077 0 .152-.014.231-.026a.549.549 0 0 0 .282-.224.616.616 0 0 0 .091-.353.584.584 0 0 0-.043-.226.432.432 0 0 0-.215-.287.636.636 0 0 0-.345-.095h-2.296v-.05l.005-2.373a.712.712 0 0 0-.051-.246.409.409 0 0 0-.22-.281.573.573 0 0 0-.348-.092c-.09 0-.16.016-.241.037a.525.525 0 0 0-.284.226.683.683 0 0 0-.073.356c0 .726-.136 1.28-.37 1.687-.12.19-.254.347-.434.47a1.505 1.505 0 0 1-.604.266.76.76 0 0 0-.373.21.587.587 0 0 0-.137.391v.011c0 .088.002.169.039.244a.42.42 0 0 0 .237.277.683.683 0 0 0 .356.082h.743v6.224c0 .303.046.604.142.868.092.273.235.513.427.7.188.204.43.357.696.466.245.096.55.139.857.139h.005a3.97 3.97 0 0 0 1.654-.384c.544-.259.941-.54 1.183-.888l.014-.01.013-.022a.828.828 0 0 0 .089-.364v-.012a.41.41 0 0 0-.066-.249.482.482 0 0 0-.18-.196m77.084-54.962a.514.514 0 0 0 .248.27.866.866 0 0 0 .376.075c.198 0 .33.021.423.029.048.04.086.05.104.06 0 .011.016.017.027.029 0 .012 0 .031.007.061.033.13.05.378.05.723v5.682a.392.392 0 0 1-.05.22c-.033.065-.056.112-.15.168a1.269 1.269 0 0 1-.41.056v.016c-.097 0-.164.011-.238.022a.777.777 0 0 0-.3.209c-.071.115-.087.228-.105.335v.02c0 .083.018.163.034.246a.579.579 0 0 0 .23.29.69.69 0 0 0 .362.094h3.15c.064 0 .15-.01.23-.043a.437.437 0 0 0 .283-.215.644.644 0 0 0 .093-.356.678.678 0 0 0-.039-.23.493.493 0 0 0-.214-.28.857.857 0 0 0-.353-.105h-.442c-.043-.01-.09-.01-.123-.021-.01 0-.02-.011-.02-.011h-.03l-.008-.01c-.052-.02-.075-.05-.104-.1-.03-.042-.052-.116-.052-.242v-5.486c.237-.292.564-.586.978-.866.518-.335.936-.476 1.274-.476.287 0 .487.041.677.12.171.079.304.192.423.342.104.152.203.364.265.655.053.283.087.641.087 1.073v4.32c0 .209-.01.36-.034.472a.339.339 0 0 0-.033.112c-.01.014-.014.014-.014.021h-.006l-.059.03c-.062.015-.155.032-.28.056h-.461c-.09 0-.168.023-.246.038-.098.052-.22.126-.28.226a.88.88 0 0 0-.089.35c0 .09.005.164.038.239a.447.447 0 0 0 .233.284.641.641 0 0 0 .344.092h3.565c.078 0 .148-.01.226-.043a.456.456 0 0 0 .257-.203c.058-.093.07-.2.07-.307v-.094a.597.597 0 0 0-.038-.22.506.506 0 0 0-.232-.268.616.616 0 0 0-.33-.094c-.202 0-.361 0-.48-.011a.68.68 0 0 1-.228-.074h-.01c-.039-.026-.08-.05-.123-.126-.017-.062-.045-.16-.045-.299v-5.272c0-.548-.083-1.04-.311-1.457a2.619 2.619 0 0 0-.945-1.009 3.08 3.08 0 0 0-1.46-.38h-.007c-.53 0-1.05.128-1.578.363-.39.166-.767.414-1.15.71v-.612a.548.548 0 0 0-.042-.224.39.39 0 0 0-.202-.299.619.619 0 0 0-.34-.104c-.066 0-.128.021-.202.036l-1.758.55a.785.785 0 0 0-.36.207.656.656 0 0 0-.075.628m-74.441 0a.497.497 0 0 0 .257.271.754.754 0 0 0 .355.074c.202 0 .338.022.443.03.031.039.074.049.094.06.015.01.024.017.027.028 0 .013 0 .032.016.062.017.13.045.378.045.722v5.687c0 .1-.014.16-.035.216a.565.565 0 0 1-.164.168 1.318 1.318 0 0 1-.426.055v.017c-.063 0-.147.01-.227.021a.672.672 0 0 0-.292.21.74.74 0 0 0-.093.334v.01c0 .09.008.176.033.253a.487.487 0 0 0 .224.29.636.636 0 0 0 .344.094h3.166c.073 0 .154-.01.237-.043.1-.03.214-.111.279-.225a.751.751 0 0 0 .085-.347.894.894 0 0 0-.029-.23.502.502 0 0 0-.235-.28c-.1-.07-.228-.088-.337-.104h-.448c-.05-.011-.096-.011-.123-.024h-.05l-.005-.01c-.047-.02-.086-.05-.101-.1-.034-.042-.052-.129-.052-.242v-5.485c.228-.293.565-.587.978-.867.504-.335.931-.476 1.273-.476.273 0 .486.042.67.12.174.079.303.192.42.342.115.153.208.364.262.655.066.283.098.641.098 1.073v4.32c0 .209-.021.36-.038.472-.004.046-.028.076-.043.112 0 .014-.01.014-.01.022h-.007s-.033.015-.054.03c-.053.015-.157.031-.279.055h-.465c-.078 0-.163.024-.243.038a.696.696 0 0 0-.278.226.834.834 0 0 0-.082.35c0 .09.006.165.04.239a.522.522 0 0 0 .217.284.666.666 0 0 0 .346.092h3.58c.075 0 .13-.01.207-.043a.4.4 0 0 0 .266-.203c.05-.093.073-.2.073-.307 0-.03 0-.061-.008-.094a.538.538 0 0 0-.045-.22.447.447 0 0 0-.212-.268.692.692 0 0 0-.345-.094c-.194 0-.344 0-.457-.01-.124-.025-.203-.045-.246-.075-.061-.026-.076-.05-.11-.126a.636.636 0 0 1-.06-.299v-5.271c0-.549-.097-1.04-.302-1.458a2.828 2.828 0 0 0-.959-1.009 3.097 3.097 0 0 0-1.45-.38h-.01c-.539 0-1.053.129-1.59.363a4.989 4.989 0 0 0-1.137.71v-.612a.932.932 0 0 0-.03-.223.505.505 0 0 0-.207-.3.718.718 0 0 0-.353-.104c-.06 0-.12.021-.2.036l-1.773.55a.73.73 0 0 0-.35.207.658.658 0 0 0-.139.374c0 .094.03.175.063.255M225.9 149.039c0-.16.034-.326.099-.463.057-.154.14-.285.262-.413.111-.116.25-.214.389-.267a.94.94 0 0 1 .437-.11c.21 0 .41.071.604.19.192.118.375.28.57.496v.012c.133.13.237.225.321.303.106.069.182.117.237.139.03.01.045.018.06.018.046 0 .1-.011.164-.04a.524.524 0 0 0 .241-.142.657.657 0 0 0 .25-.278c.092-.131.158-.285.2-.473.122-.378.182-.894.182-1.54v-11.41c0-.13-.03-.235-.09-.325a.69.69 0 0 0-.278-.243c-.257-.139-.7-.215-1.318-.215h-.012a.65.65 0 0 1-.335-.088.636.636 0 0 1-.232-.288.877.877 0 0 1-.032-.232c0-.137.02-.254.082-.37.069-.1.16-.197.282-.228a.9.9 0 0 1 .235-.034h4.926c.119 0 .233.023.365.087a.556.556 0 0 1 .211.298.9.9 0 0 1 .032.247.634.634 0 0 1-.084.341.496.496 0 0 1-.29.224.732.732 0 0 1-.234.043h-.006c-.346 0-.628.04-.82.136-.197.075-.314.187-.371.324a.784.784 0 0 0-.072.378v10.892c0 1.05-.181 1.894-.521 2.535-.397.707-1.024 1.247-1.867 1.614-.545.233-1.077.356-1.586.356-.465 0-.896-.102-1.256-.326-.242-.137-.44-.288-.56-.493a1.241 1.241 0 0 1-.185-.66" style="stroke-width:1.12357"/><path fill="#ed1c24" d="M120.666 145.726c-3.47 0-6.292 2.805-6.292 6.273 0 3.47 2.823 6.28 6.292 6.28a6.283 6.283 0 0 0 6.283-6.28c0-3.468-2.816-6.273-6.283-6.273" style="stroke-width:1.12357"/><path fill="#231f20" d="M220.408 65.748h-13.16v20.069h13.16zm4.066-7.168c1.243 0 2.289.313 3.016 1.04.723.722 1.044 1.771 1.044 3.02v28.718c0 1.114-.404 2.117-1.177 2.882a4.003 4.003 0 0 1-2.883 1.187c-1.065 0-2.036-.414-2.83-1.176a3.813 3.813 0 0 1-1.236-2.893v-.26h-13.156v2.784c.012 1.067-.397 2.031-1.156 2.828-.75.803-1.764 1.226-2.867 1.226h-.015a3.853 3.853 0 0 1-2.919-1.226c-.758-.79-1.163-1.774-1.163-2.828V62.64c0-1.249.328-2.298 1.044-3.02.73-.727 1.78-1.04 3.02-1.04 1.528-.021 2.799.71 3.52 2.002h14.345c.713-1.29 1.934-2.023 3.413-2.002m-22.653-47.084c-.827 0-1.562-.218-2.059-.736-.516-.516-.728-1.24-.728-2.063 0-.833.212-1.562.728-2.082.497-.515 1.232-.728 2.059-.728h20.056c.478-1.999 2.023-3.204 4.17-3.147a4.203 4.203 0 0 1 3.1 1.272 4.243 4.243 0 0 1 1.275 3.11c.008 1.364-.382 2.494-1.214 3.263-.836.768-2.03 1.11-3.482 1.11H201.82m32.392 8.467c0 1.353-.36 2.498-1.172 3.264-.825.768-1.988 1.118-3.408 1.118h-31.617c-.815 0-1.54-.228-2.033-.724-.526-.524-.744-1.26-.739-2.077-.006-.828.213-1.573.739-2.077.493-.52 1.229-.729 2.055-.729h27.636c.472-2.022 2.079-3.206 4.27-3.151 1.136-.011 2.177.436 2.993 1.276.843.83 1.276 1.92 1.276 3.1m-9.216 22.375c1.183-.013 2.252.399 3.05 1.217a4.05 4.05 0 0 1 1.223 2.942c.002 1.128-.444 2.17-1.28 2.98-.824.843-1.86 1.293-2.985 1.293h-24.547c-.83 0-1.568-.207-2.06-.736-.529-.508-.74-1.241-.74-2.067 0-.824.211-1.552.74-2.07.5-.517 1.23-.721 2.06-.721h20.603c.54-1.824 2.011-2.878 3.936-2.838m-24.325-4.418c-.82 0-1.562-.207-2.071-.724-.52-.515-.732-1.241-.732-2.068 0-.83.211-1.564.732-2.07.509-.521 1.25-.74 2.071-.74h20.389c.54-1.801 1.987-2.88 3.936-2.84 1.118 0 2.157.433 2.931 1.23.81.803 1.24 1.864 1.235 3.043 0 1.29-.337 2.362-1.094 3.1-.773.745-1.859 1.069-3.168 1.069h-24.229m336.061 27.829h-13.146v20.069h13.146zm4.069-7.168c1.251 0 2.304.313 3.016 1.04.72.722 1.048 1.771 1.048 3.02v28.718c0 1.114-.405 2.117-1.185 2.882-.76.773-1.764 1.187-2.88 1.187-1.059 0-2.043-.414-2.843-1.176a3.9 3.9 0 0 1-1.225-2.893v-.26H523.59v2.784c.01 1.067-.417 2.031-1.162 2.828a3.872 3.872 0 0 1-2.869 1.226h-.035a3.827 3.827 0 0 1-2.897-1.226c-.757-.79-1.163-1.774-1.163-2.828V62.64c0-1.249.32-2.298 1.041-3.02.73-.727 1.771-1.04 3.02-1.04 1.534-.021 2.795.71 3.51 2.002h14.36c.702-1.29 1.932-2.023 3.407-2.002m-22.64-47.084c-.83 0-1.571-.218-2.075-.736-.517-.516-.738-1.24-.719-2.063-.019-.833.201-1.562.72-2.082.503-.515 1.243-.728 2.074-.728h20.045c.465-1.999 2.034-3.204 4.166-3.147 1.205-.01 2.271.429 3.103 1.272.845.837 1.28 1.906 1.274 3.11.007 1.364-.373 2.494-1.207 3.263-.84.768-2.036 1.11-3.485 1.11h-23.896m32.388 8.467c.01 1.353-.363 2.498-1.19 3.264-.815.768-1.981 1.118-3.399 1.118h-31.614c-.819 0-1.534-.228-2.057-.724-.51-.524-.728-1.26-.71-2.077-.018-.828.2-1.573.71-2.077.523-.52 1.254-.729 2.076-.729h27.63c.48-2.022 2.088-3.206 4.278-3.151 1.124-.011 2.177.436 3 1.276a4.25 4.25 0 0 1 1.276 3.1m-9.243 22.375c1.198-.013 2.27.399 3.062 1.217a4.072 4.072 0 0 1 1.237 2.942c0 1.128-.447 2.17-1.294 2.98a4.089 4.089 0 0 1-2.977 1.293h-24.53c-.843 0-1.586-.207-2.087-.736-.513-.508-.732-1.241-.732-2.067 0-.824.22-1.552.732-2.07.515-.517 1.244-.721 2.086-.721h20.59c.531-1.824 1.997-2.878 3.913-2.838m-24.305-4.418c-.83 0-1.553-.207-2.07-.724-.519-.515-.727-1.241-.727-2.068 0-.83.208-1.564.726-2.07.518-.521 1.242-.74 2.071-.74h20.393c.53-1.801 1.98-2.88 3.912-2.84a4.08 4.08 0 0 1 2.953 1.23c.826.803 1.231 1.864 1.231 3.043 0 1.29-.332 2.362-1.112 3.1-.754.745-1.838 1.069-3.153 1.069h-24.224M642.11 74.924c0-.354.054-.72.185-1.073-.185-.587-.558-1.795-1.105-3.595-.57-1.87-.851-2.82-.886-3.334 0-.649.176-1.255.609-1.683.433-.417 1.02-.581 1.679-.581.434 0 .832.151 1.297.431 3.805 2.784 5.897 5.973 6.125 9.49v.074c-.14 2.552-1.54 4.227-3.746 4.227h-.101c-1.238 0-2.293-.303-3.01-1.014-.734-.709-1.047-1.732-1.047-2.942M394.903 37.646c.99.904 1.496 2.144 1.491 3.54.072 2.86-1.873 4.674-5.104 4.902H364.77c-3.268 0-5.825-.894-7.544-2.77-1.715-1.874-2.513-4.608-2.513-8.134V4.27a3.761 3.761 0 0 1 1.3-2.912 4.263 4.263 0 0 1 2.973-1.14c1.235-.01 2.306.32 3.02 1.065.732.743 1.042 1.815 1.042 3.095v16.087c5.911-2.354 11.517-5.063 16.803-8.167.77-2.225 2.522-3.496 4.82-3.463.181 0 .273 0 .46.02 0 0 1.865.027 3.35 1.585v.01c.9.89 1.427 2.159 1.406 3.608.032 2.348-1.138 4.1-3.246 4.776a191.537 191.537 0 0 1-23.593 6.549v9.697c-.04 1.637.299 2.515.394 2.518.261.216.776.372 1.543.37h21.407v-4.255c0-.656.169-1.259.581-1.674.438-.433 1.04-.594 1.686-.594.648 0 1.25.154 1.68.594.412.415.59 1.018.59 1.674v2.582h.576c1.258-.015 2.436.455 3.397 1.355m97.755-16.63c.913.857 1.405 1.986 1.405 3.268l-.016.026c-.143 2.357-.2 6.533-.2 12.5-.016 19.54-1.116 33.316-3.41 41.43-3.151 10.882-9.433 17.084-18.608 18.224-.233.03-.45.03-.669.03h-.017c-1.39 0-2.614-.425-3.59-1.28-1.13-.963-1.744-2.275-1.726-3.758 0-.804.2-1.603.57-2.37l-2.915-.318c-1.159-.08-2.07-.96-1.995-2.098 0-.146 0-.298.024-.446.069-1.162.945-2.072 2.111-2.017.138 0 .285.019.438.04l11.137 1.343c3.623-2.765 6.23-8.54 7.587-17.386.973-6.262 1.533-16.78 1.683-31.512.065-4.045.116-7.174.175-9.417h-28.94c-.327 17.143-3.503 31.17-9.54 42.04-7.164 12.767-18.527 21.783-34.017 27.014-.25.088-.537.135-.807.135-.66.01-1.263-.162-1.688-.589-.422-.422-.595-1.028-.595-1.676-.013-.84.503-1.588 1.25-1.979 12.768-7.198 21.94-16.331 27.57-27.456 4.925-9.734 7.73-22.22 8.332-37.489h-33.49c-.884 0-1.645-.23-2.175-.774-.516-.55-.74-1.33-.74-2.217 0-.873.224-1.623.75-2.148.539-.54 1.286-.76 2.165-.76h33.73c0-2.016-.046-4.514-.106-7.51-.143-4.213-.217-6.91-.217-8.094-.008-.118-.008-.231-.008-.341 0-1.526.527-2.862 1.56-3.843C448.743.542 450.09-.006 451.562 0c1.376 0 2.63.448 3.612 1.279 1.39 1.064 2.135 2.502 2.128 4.156 0 1.417-.517 2.73-1.46 3.9.016 3.24.029 5.898.029 8.009 0 1.723-.013 3.076-.022 4.037h30.18c.831-1.095 2.035-1.705 3.435-1.684 1.207 0 2.296.459 3.193 1.323M335.652 42.528H318.39v10.527h17.263zm0 26.29-.014-10.601H318.39v10.6zm4.067-33.466c1.276 0 2.349.323 3.071 1.037.75.713 1.033 1.78 1.033 3.027v52.736c0 1.327-.54 2.528-1.468 3.469a4.8 4.8 0 0 1-3.477 1.438c-1.392 0-2.63-.474-3.558-1.446-.895-.946-1.357-2.138-1.353-3.46 0-.402.05-.812.128-1.202h-2.609c-.644 0-1.248-.169-1.685-.593-.411-.434-.574-1.027-.574-1.688 0-.64.163-1.248.574-1.668.437-.423 1.041-.605 1.685-.605h4.166V74.094h-17.261v19.634a3.966 3.966 0 0 1-1.22 2.94c-.791.794-1.8 1.227-2.915 1.227h-.033a3.975 3.975 0 0 1-2.935-1.226 3.958 3.958 0 0 1-1.22-2.94V39.623c0-1.285.305-2.358 1.07-3.094.74-.75 1.808-1.071 3.085-1.071 1.448-.013 2.67.619 3.4 1.792h18.693c.715-1.235 1.935-1.916 3.403-1.899M390.75 87.24c1.335 0 2.535.49 3.49 1.438.937.937 1.424 2.14 1.424 3.47 0 1.327-.487 2.532-1.424 3.465-.95.947-2.132 1.446-3.466 1.446H364.47c-3.262 0-5.828-.833-7.54-2.611-1.727-1.767-2.532-4.357-2.532-7.667V52.556c-.008-1.118.437-2.15 1.278-2.948a4.354 4.354 0 0 1 3.08-1.213c1.132 0 2.143.4 2.945 1.164a3.931 3.931 0 0 1 1.238 2.897V67.09c5.778-2.85 11.194-5.754 16.225-8.735.896-1.745 2.48-2.716 4.443-2.69 1.464 0 2.725.49 3.724 1.486a4.956 4.956 0 0 1 1.485 3.634c.049 2.413-1.214 4.208-3.435 4.864-8.455 2.74-15.922 4.923-22.442 6.534v14.914c.085 1.336.39 1.647 1.728 1.73h20.994v-4.576c0-.643.161-1.252.593-1.674.42-.434 1.019-.6 1.674-.6.64 0 1.247.166 1.67.6.428.422.596 1.031.596 1.674v3.043c.197-.034.378-.054.556-.054m-44.746-68.975c3.538 3.213 5.436 6.232 5.456 9.17.073 2.944-1.68 4.805-4.59 4.805h-.032c-1.313 0-2.482-.476-3.382-1.381a4.505 4.505 0 0 1-1.385-3.315c0-.314.045-.62.148-.92a28.867 28.867 0 0 0-1.059-1.751c-6.5 1.99-16.142 3.831-28.97 5.547-.992.91-2.219 1.402-3.53 1.402-1.125 0-2.175-.372-3.132-1.089-1.164-1.005-1.793-2.331-1.778-3.812-.015-1.274.495-2.458 1.412-3.463a4.722 4.722 0 0 1 3.589-1.552c2.536 0 5.141-.065 7.81-.204 1.539-3.92 3.69-9.75 6.473-17.486.71-2.564 2.56-4.036 5.097-3.993 1.506-.011 2.844.648 3.898 1.857a4.83 4.83 0 0 1 1.313 3.355c.043 2.231-1.116 3.962-3.14 4.783-1.733 2.72-4.341 6.482-7.841 11.312 6.656-.299 11.961-.563 15.924-.821-1.415-1.923-2.66-3.515-3.726-4.756a2.238 2.238 0 0 1-.695-1.667c-.01-.619.156-1.205.56-1.606.41-.416.976-.57 1.604-.57.377 0 .75.101 1.092.267 3.266 1.575 6.228 3.528 8.884 5.888m281.309 48.179c.983-.04 1.728.719 1.935 1.693a27.051 27.051 0 0 1 1.068 7.542c0 6.386-1.696 10.107-5.519 10.15h-.023c-1.201 0-2.3-.486-3.186-1.381-.896-.886-1.388-1.993-1.388-3.214-.018-1.909.941-3.419 2.677-4.132 1.04-2.543 1.743-5.43 2.073-8.674.109-1.227 1.131-2.05 2.363-1.984m15.958-23.786h-7.49V53.39h7.49zm-7.49-5.277h7.49V27.085h-7.49zm0-15.582h7.49V11.183h-7.49zm30.438 34.527c-1.652 25.62-6.553 39.111-15.775 40.03-.23.024-.454.037-.66.037h-.013c-1.173 0-2.218-.381-3.014-1.134a4.42 4.42 0 0 1-1.39-3.27c-.001-.738.188-1.448.539-2.132l-1.665-.116c-1.254-.015-2.206-.969-2.142-2.201 0-.069 0-.156.01-.258.092-1.251 1.06-2.158 2.285-2.1.09 0 .155 0 .243.01l7.165.596c2.043-2.622 3.699-7.697 4.915-15.174-.103.111-.183.219-.292.33-.653.686-1.632.997-2.788.997-1.06 0-2.006-.442-2.752-1.252a3.598 3.598 0 0 1-.905-2.39c0-.132 0-.27.005-.399l-1.158-1.92c-.627-1.037-.983-1.573-1.028-2.204 0-.657.161-1.259.59-1.678.426-.425 1.028-.603 1.681-.6 1.38.025 2.87.84 4.58 2.3 1.323 1.126 2.218 2.197 2.56 3.283.337-2.573.62-5.38.853-8.406h-22.482c-.484 1.811-1.961 2.889-3.955 2.831-1.234.01-2.291-.311-3.015-1.07-.725-.741-1.026-1.818-1.026-3.098V8.385c0-1.252.313-2.305 1.026-3.015.743-.723 1.78-1.045 3.015-1.045 1.329-.015 2.49.545 3.266 1.568h22.42c.227-2.324 1.862-3.734 4.325-3.673 1.227-.01 2.298.456 3.16 1.337a4.3 4.3 0 0 1 1.331 3.14c0 1.265-.486 2.386-1.4 3.22-.877.82-1.939 1.273-3.09 1.269h-10.66V21.8h4.91c.426-1.813 1.878-2.897 3.871-2.848a3.925 3.925 0 0 1 2.891 1.182c.764.764 1.166 1.762 1.155 2.874.01 1.079-.417 2.059-1.222 2.854a4.06 4.06 0 0 1-2.935 1.227h-8.67v10.294h5.128c.47-1.87 1.916-2.995 3.864-2.96 1.115 0 2.14.442 2.927 1.238.805.79 1.222 1.77 1.222 2.838 0 1.252-.314 2.305-1.062 3.023-.744.732-1.814 1.03-3.087 1.03l-8.993.1v10.74h8.283c.743-.9 1.782-1.39 2.993-1.38.09 0 .167 0 .276.014 2.308.07 3.784 1.6 3.722 3.878 0 .138-.017.279-.031.414zm-30.825 10.06a17.234 17.234 0 0 1 4.26 5.72c.816 1.813 1.245 3.413 1.245 4.844 0 .313 0 .605-.04.888-.24 2.366-1.64 3.894-3.752 3.894h-.098c-1.24 0-2.295-.308-3.006-1.011-.73-.711-1.06-1.737-1.06-2.945 0-.458.086-.915.217-1.36-.012-2.644-.447-5.177-1.356-7.66a2.465 2.465 0 0 1-.083-.657 2.42 2.42 0 0 1 .429-1.389c.364-.599.998-1.018 1.692-1.007.592 0 1.153.264 1.552.682m-30.15 18.467c1.03.174 1.948.683 2.693 1.464.957 1.008 1.487 2.222 1.487 3.572 0 1.468-.56 2.763-1.615 3.742-1.02.95-2.25 1.474-3.574 1.474h-.045c-.789 0-1.598-.207-2.362-.584-15.275-7.817-23.976-28.921-26.503-63.123h-22.511c-.82 0-1.553-.207-2.073-.723-.505-.515-.722-1.244-.722-2.073 0-.833.217-1.561.722-2.076.52-.515 1.254-.722 2.073-.722h22.143c-.138-3.691-.192-8.118-.192-13.311V4.799a3.935 3.935 0 0 1 1.213-2.928 4.03 4.03 0 0 1 2.953-1.237c1.12 0 2.157.422 2.964 1.215a3.945 3.945 0 0 1 1.299 2.95v7.693c0 5.146.097 9.577.284 13.31h15.155c.411-2.287 2.094-3.645 4.513-3.586 1.266 0 2.381.466 3.258 1.33.874.876 1.332 2.013 1.332 3.261 0 1.197-.463 2.3-1.329 3.197-.862.909-1.948 1.403-3.155 1.393h-19.482c2.036 25.813 7.776 43.196 16.994 52.15l1.967-3.727c.39-.787 1.066-1.357 1.87-1.346.44 0 .852.137 1.268.37.745.415 1.27 1.096 1.262 1.905 0 .399-.12.793-.323 1.197l-1.564 2.906m-28.108-18.09c.646 0 1.26.18 1.694.629.416.456.575 1.06.575 1.743.011.794-.43 1.54-1.147 1.885-6.399 4.04-13.367 8.046-20.866 12.01-.785 1.877-2.251 2.985-4.132 2.985h-.064c-.333 0-.65-.035-.977-.084-2.635-.324-4.153-2.178-4.106-4.898-.027-2.065 1.019-3.686 2.912-4.438l8.258-3.226V50.66h-7.739c-.814.01-1.556-.198-2.07-.715-.508-.525-.729-1.248-.729-2.076 0-.825.22-1.555.728-2.075.515-.508 1.257-.726 2.071-.726h16.411c.602-1.686 2.001-2.66 3.807-2.63 1.257 0 2.308.324 3.036 1.034.704.725 1.028 1.779 1.028 3.028 0 1.282-.328 2.349-1.073 3.104-.739.74-1.804 1.067-3.1 1.056H567.3v19.736l8.947-3.366c.258-.158.564-.268.89-.268m-395.399.356c.838.3 1.463.992 1.457 1.851 0 .367-.13.756-.285 1.125-.317.873-1.05 1.517-1.93 1.482a2.88 2.88 0 0 1-1.034-.207c-.634-.24-1.26-.494-1.893-.773a4.86 4.86 0 0 1-1.186 3.087c-.98 1.145-2.336 1.728-3.873 1.728-1.109 0-2.206-.367-3.27-1.046-15.043-10.32-25.767-24.5-32.158-42.49v33.724h8.946c.474-2.013 2.072-3.207 4.265-3.153a4.3 4.3 0 0 1 3.109 1.27c.83.841 1.268 1.921 1.268 3.11 0 1.358-.378 2.504-1.218 3.268-.83.768-2.023 1.105-3.465 1.105h-12.905V93.67a4.08 4.08 0 0 1-1.292 3.057c-.82.808-1.889 1.212-3.057 1.212h-.024c-1.121 0-2.154-.412-2.993-1.212a4.14 4.14 0 0 1-1.276-3.057V71.2h-18.05c-.836 0-1.556-.22-2.082-.736-.504-.506-.719-1.235-.719-2.056 0-.833.215-1.564.715-2.077.53-.522 1.25-.731 2.086-.731h18.05V36.13c-9.842 18.312-23.115 31.683-39.777 40.043-.407.242-.81.387-1.24.387-.643 0-1.232-.145-1.661-.54-.435-.416-.606-1-.602-1.632-.004-.798.404-1.545 1.063-2.027 7.407-5.72 14.634-13.023 21.693-21.909 6.238-7.859 11.574-16.037 16.041-24.537H89.92c-.869.01-1.64-.226-2.168-.774-.531-.561-.75-1.33-.74-2.224-.01-.865.209-1.625.75-2.16.53-.525 1.29-.753 2.158-.753h38.782V4.699c0-1.21.493-2.302 1.391-3.17.89-.853 1.954-1.32 3.1-1.306 1.197-.013 2.296.45 3.148 1.325.877.858 1.34 1.941 1.34 3.151v15.306h30.375c.411-2.354 2.187-3.74 4.728-3.685 1.27-.01 2.413.482 3.308 1.394.912.902 1.398 2.075 1.39 3.413.008 1.314-.478 2.509-1.39 3.407-.906.926-2.088 1.389-3.404 1.382H140.96c4.19 8.948 9.547 16.908 16.053 23.88 7.37 7.869 15.612 13.637 24.724 17.322M693.82 49.664c0 2.87-.149 5.61-.45 8.254h11.81V47.185h-11.36v2.479m-8.015-2.479h-8.52v10.733h8.269c.164-1.692.251-3.358.251-4.996zm35.682-22.096c.998.192 1.777.956 1.732 1.932 0 .304-.056.6-.143.905-.223.977-1.049 1.694-2.02 1.662a3.81 3.81 0 0 1-.838-.115 47.99 47.99 0 0 0-1.574-.493v.028c.002 1.018-.33 1.93-.957 2.643-.801.934-1.869 1.434-3.065 1.423a4.494 4.494 0 0 1-2.093-.499c-9.484-5.355-16.845-13-22.06-22.896a3.71 3.71 0 0 1-.553.166c-4.11 7.05-8.756 12.946-13.9 17.687.187-.036.388-.054.578-.043h19.218c.49-1.82 1.968-2.905 3.967-2.85 1.046 0 2.02.407 2.806 1.165a3.828 3.828 0 0 1 1.248 2.9c0 1.257-.343 2.313-1.113 3.03-.762.723-1.848 1.033-3.153 1.033h-5.747v9.149h11.893c.73-1.29 1.96-2.025 3.439-2.014 1.199 0 2.231.334 2.927 1.054.71.727 1.02 1.774 1.02 3.018V61.67c0 1.232-.31 2.274-1.02 3.006-.696.723-1.728 1.052-2.927 1.052-1.748.023-3.118-.923-3.712-2.534h-9.614c1.568 4.792 4.49 9.188 8.754 13.216 4.503 4.207 9.874 7.325 16.138 9.345.967.328 1.674 1.095 1.658 2.058 0 .29-.056.58-.138.88l-.008.01c-.272.93-1.046 1.609-2.006 1.575-.291 0-.629-.054-.946-.154-.442-.15-.94-.315-1.498-.49-.08 1.122-.436 2.058-1.087 2.757-.786.85-1.95 1.242-3.334 1.242a5.026 5.026 0 0 1-2.725-.822c-9.312-5.547-15.572-14.184-18.753-25.799-1.36 6.889-4.226 12.932-8.62 18.045-4.982 5.808-11.249 9.719-18.733 11.713a3.392 3.392 0 0 1-.826.117h-.04c-.565 0-1.11-.233-1.427-.686-.33-.458-.434-1.023-.446-1.678-.01-.812.42-1.557 1.147-1.984 11.38-6.556 18.57-16.29 21.661-29.341h-7.341c-.305 1.994-1.783 3.232-3.921 3.162-1.218 0-2.233-.314-2.944-1.023-.698-.704-1.015-1.721-1.015-2.941v-18.42c0-1.21.317-2.228 1.015-2.937.711-.717 1.735-1.03 2.944-1.03 1.464-.015 2.68.666 3.407 1.91h9.063V32.77h-9.21c-.75 0-1.431-.192-1.919-.678-.466-.478-.67-1.159-.658-1.91 0-.354.04-.698.126-1.014a55.15 55.15 0 0 1-7.779 5.514c-.404.247-.825.394-1.247.406-.62 0-1.228-.195-1.618-.658-.403-.44-.548-1.042-.548-1.72 0-.597.196-1.169.605-1.578 8.237-8.231 15.152-17.708 20.727-28.376.834-1.706 2.347-2.666 4.209-2.639 1.485-.01 2.792.562 3.766 1.66.831.946 1.27 2.057 1.27 3.246 0 .114 0 .223-.005.35 3.38 4.433 7.62 8.45 12.741 12.067 5.182 3.655 10.274 6.2 15.221 7.652M62.142 10.383H10.584v75.706h51.558zm4.39-8.022c1.387 0 2.54.344 3.324 1.12.795.785 1.15 1.91 1.15 3.269v86.885a4.462 4.462 0 0 1-1.253 3.132 4.183 4.183 0 0 1-3.107 1.337h-.021c-1.178.01-2.281-.456-3.148-1.322-.857-.871-1.335-1.962-1.335-3.147V91.68H10.585v1.954a4.435 4.435 0 0 1-1.274 3.137 4.12 4.12 0 0 1-3.104 1.332c-1.213.01-2.281-.456-3.14-1.322-.888-.871-1.334-1.962-1.334-3.147V6.75c0-1.36.351-2.484 1.149-3.269.785-.776 1.936-1.12 3.325-1.12 1.803-.018 3.245.864 3.97 2.426H62.66c.725-1.562 2.127-2.444 3.87-2.426m525.713 13.902c-1.9-2.789-3.375-4.657-4.373-5.568-.49-.51-.796-1.113-.79-1.776 0-.619.136-1.173.526-1.597.365-.408.937-.572 1.528-.572.292 0 .618.031 1.005.123a22.096 22.096 0 0 1 6.482 2.804c2.665 1.657 4.143 3.56 4.16 5.76.07 2.296-1.285 3.94-3.558 4.276-.201.02-.402.042-.602.042-.878 0-1.773-.28-2.628-.811-1.049-.627-1.695-1.583-1.75-2.68m-320.12 70.693-.006-22.184h-22.436v22.184zm4.261-29.77a3.89 3.89 0 0 1 2.944 1.292 4.19 4.19 0 0 1 1.216 2.976v30.723a4.108 4.108 0 0 1-1.225 2.937c-.8.796-1.81 1.225-2.934 1.223-1.134 0-2.153-.427-2.98-1.216-.806-.757-1.247-1.722-1.281-2.784h-22.442v.474a3.992 3.992 0 0 1-1.217 2.933 4.01 4.01 0 0 1-2.912 1.219h-.023c-1.125.021-2.131-.423-2.9-1.227a4.182 4.182 0 0 1-1.168-2.925V61.455c0-1.284.323-2.352 1.068-3.103.753-.743 1.82-1.07 3.11-1.06 1.578-.026 2.872.74 3.53 2.107h23.462c.741-1.433 2.087-2.243 3.753-2.212m-8.172-28.424h-11.68l-3.44 16.528h15.12zm19.126 13.364c1.19 0 2.262.443 3.1 1.267a4.377 4.377 0 0 1 1.27 3.111 4.359 4.359 0 0 1-1.27 3.104 4.305 4.305 0 0 1-3.084 1.274h-52.25c-.835 0-1.559-.218-2.077-.728-.512-.52-.722-1.255-.722-2.072 0-.827.21-1.556.722-2.071.518-.517 1.242-.738 2.076-.721h9.728l3.356-16.528h-8.452c-.78 0-1.483-.205-1.989-.693-.501-.5-.695-1.201-.695-2 0-.787.194-1.494.695-1.992.506-.497 1.21-.703 1.989-.703h9.635l2.392-11.347h-12.24c-.822 0-1.552-.203-2.067-.72-.519-.52-.722-1.258-.722-2.07 0-.84.203-1.571.722-2.077.515-.525 1.245-.734 2.067-.734h36.373c.482-2.012 2.02-3.202 4.164-3.147a4.138 4.138 0 0 1 3.1 1.268 4.268 4.268 0 0 1 1.292 3.1c0 1.194-.456 2.27-1.292 3.095-.847.852-1.956 1.285-3.208 1.285H260.12l-2.407 11.347h11.312c.769-1.025 1.933-1.586 3.252-1.572 1.247 0 2.288.314 3.01 1.042.731.72 1.056 1.77 1.056 3.02v19.426h6.818c.474-2.012 2.017-3.217 4.18-3.164" style="stroke-width:1.12357"/><path fill="#ed1c24" d="M47.992 48.228c0 6.418-5.205 11.632-11.624 11.632-6.422 0-11.642-5.214-11.642-11.632 0-6.438 5.22-11.634 11.642-11.634 6.42 0 11.624 5.196 11.624 11.634" style="stroke-width:1.12357"/></svg>